<svg width="170" height="78" viewBox="0 0 170 78" fill="none" xmlns="http://www.w3.org/2000/svg">
<path d="M168.718 0.525122C168.743 0.56218 168.894 0.57206 168.894 0.609554L170.21 75.9918C170.224 76.2587 170.169 76.5248 170.048 76.7635C170.048 76.7635 170.023 76.7639 170.024 76.7764L169.999 76.7769C169.92 76.9345 169.773 77.0746 169.598 77.0777L128.785 77.7901C128.423 77.7964 128.133 77.2889 128.121 76.6577L127.405 35.6202L3.44908 37.7839C2.09304 37.8076 0.913969 37.5843 0.909278 37.3156L0.318733 3.48329C0.313606 3.18959 1.48438 2.93787 2.84043 2.9142L168.253 0.0269155C168.44 0.0236432 168.612 0.208164 168.717 0.46263" fill="#FF8682"/>
</svg>
